ffmpeg started on 2025-06-04 at 19:27:44
Report written to "D:\Convert\FFMetrics\reports\psnr_report-6.txt"
Log level: 32
Command line:
ffmpeg -hide_banner -nostdin -i "G:\\\xc0\xed\xe8\xec\xe5\\\xce\xed\xe3\xee\xe8\xed\xe3\xe8\\!_36_\xce\xf1\xe5\xed\xfc_2024\\DreamCast\\\xc2\xfb \xef\xf0\xe0\xe2\xe4\xe0 \xe6\xe5\xed\xe8\xf2\xe5\xf1\xfc\\[DC] Kekkon Surutte Hontou Desuka - 05_Telegram_HEVC.mkv" -i "G:\\\xc0\xed\xe8\xec\xe5\\\xce\xed\xe3\xee\xe8\xed\xe3\xe8\\!_36_\xce\xf1\xe5\xed\xfc_2024\\DreamCast\\\xc2\xfb \xef\xf0\xe0\xe2\xe4\xe0 \xe6\xe5\xed\xe8\xf2\xe5\xf1\xfc\\[DC] Kekkon Surutte Hontou Desuka - 05_Telegram.mp4" -lavfi "[0:v]settb=AVTB,setpts=PTS-STARTPTS,format=pix_fmts=yuv420p10,fps=24000/1001,scale=1920:1080:flags=bicubic[main];[1:v]settb=AVTB,setpts=PTS-STARTPTS,format=pix_fmts=yuv420p,fps=24000/1001,scale=1920:1080:flags=bicubic[ref];[main][ref]psnr=eof_action=endall:stats_file='D\\:/Convert/FFMetrics/logs/psnr_logfile-6.txt'" -f null -
Input #0, matroska,webm, from 'G:\Аниме\Онгоинги\!_36_Осень_2024\DreamCast\Вы правда женитесь\[DC] Kekkon Surutte Hontou Desuka - 05_Telegram_HEVC.mkv':
  Metadata:
    COMPATIBLE_BRANDS: isomiso2avc1mp41
    MAJOR_BRAND     : isom
    MINOR_VERSION   : 512
    ENCODER         : Lavf61.7.100
  Duration: 00:23:47.71, start: -0.021000, bitrate: 1283 kb/s
  Stream #0:0: Video: hevc (Main 10), yuv420p10le(tv, bt709, progressive), 1920x1080 [SAR 1:1 DAR 16:9], 23.98 fps, 23.98 tbr, 1k tbn (default)
      Metadata:
        HANDLER_NAME    : VideoHandler
        VENDOR_ID       : [0][0][0][0]
        ENCODER         : Lavc61.19.100 libx265
        BPS             : 1087225
        DURATION        : 00:23:46.549708333
        NUMBER_OF_FRAMES: 34203
        NUMBER_OF_BYTES : 193872606
        _STATISTICS_WRITING_APP: mkvpropedit v66.0.0 ('Josie') 64-bit
        _STATISTICS_WRITING_DATE_UTC: 2025-05-30 07:58:24
        _STATISTICS_TAGS: BPS DURATION NUMBER_OF_FRAMES NUMBER_OF_BYTES
  Stream #0:1: Audio: aac (LC), 48000 Hz, stereo, fltp (default)
      Metadata:
        HANDLER_NAME    : SoundHandler
        VENDOR_ID       : [0][0][0][0]
        ENCODER         : Lavc61.19.100 aac
        BPS             : 193465
        DURATION        : 00:23:47.712000000
        NUMBER_OF_FRAMES: 66925
        NUMBER_OF_BYTES : 34526587
        _STATISTICS_WRITING_APP: mkvpropedit v66.0.0 ('Josie') 64-bit
        _STATISTICS_WRITING_DATE_UTC: 2025-05-30 07:58:24
        _STATISTICS_TAGS: BPS DURATION NUMBER_OF_FRAMES NUMBER_OF_BYTES
Input #1, mov,mp4,m4a,3gp,3g2,mj2, from 'G:\Аниме\Онгоинги\!_36_Осень_2024\DreamCast\Вы правда женитесь\[DC] Kekkon Surutte Hontou Desuka - 05_Telegram.mp4':
  Metadata:
    major_brand     : isom
    minor_version   : 512
    compatible_brands: isomiso2avc1mp41
    encoder         : Lavf61.1.100
  Duration: 00:23:47.68, start: 0.000000, bitrate: 3630 kb/s
  Stream #1:0[0x1](und): Video: h264 (High) (avc1 / 0x31637661), yuv420p(tv, bt709, progressive), 1920x1080 [SAR 1:1 DAR 16:9], 3485 kb/s, 23.98 fps, 23.98 tbr, 24k tbn (default)
      Metadata:
        handler_name    : VideoHandler
        vendor_id       : [0][0][0][0]
        encoder         : Lavc61.3.100 h264_qsv
  Stream #1:1[0x2](und): Audio: aac (HE-AACv2) (mp4a / 0x6134706D), 48000 Hz, stereo, fltp, 144 kb/s (default)
      Metadata:
        handler_name    : SoundHandler
        vendor_id       : [0][0][0][0]
Stream mapping:
  Stream #0:0 (hevc) -> settb:default
  Stream #1:0 (h264) -> settb:default
  psnr:default -> Stream #0:0 (wrapped_avframe)
  Stream #0:1 -> #0:1 (aac (native) -> pcm_s16le (native))
Output #0, null, to 'pipe:':
  Metadata:
    COMPATIBLE_BRANDS: isomiso2avc1mp41
    MAJOR_BRAND     : isom
    MINOR_VERSION   : 512
    encoder         : Lavf61.7.100
  Stream #0:0: Video: wrapped_avframe, yuv420p10le(tv, bt709, progressive), 1920x1080 [SAR 1:1 DAR 16:9], q=2-31, 200 kb/s, 23.98 fps, 23.98 tbn
      Metadata:
        encoder         : Lavc61.19.100 wrapped_avframe
  Stream #0:1: Audio: pcm_s16le, 48000 Hz, stereo, s16, 1536 kb/s (default)
      Metadata:
        HANDLER_NAME    : SoundHandler
        VENDOR_ID       : [0][0][0][0]
        _STATISTICS_TAGS: BPS DURATION NUMBER_OF_FRAMES NUMBER_OF_BYTES
        BPS             : 193465
        DURATION        : 00:23:47.712000000
        NUMBER_OF_FRAMES: 66925
        NUMBER_OF_BYTES : 34526587
        _STATISTICS_WRITING_APP: mkvpropedit v66.0.0 ('Josie') 64-bit
        _STATISTICS_WRITING_DATE_UTC: 2025-05-30 07:58:24
        encoder         : Lavc61.19.100 pcm_s16le
frame=  140 fps=0.0 q=-0.0 size=N/A time=00:00:05.83 bitrate=N/A speed=11.3x    frame=  330 fps=318 q=-0.0 size=N/A time=00:00:13.76 bitrate=N/A speed=13.3x    frame=  560 fps=362 q=-0.0 size=N/A time=00:00:23.35 bitrate=N/A speed=15.1x    frame=  778 fps=376 q=-0.0 size=N/A time=00:00:32.44 bitrate=N/A speed=15.7x    frame=  969 fps=376 q=-0.0 size=N/A time=00:00:40.41 bitrate=N/A speed=15.7x    frame= 1168 fps=377 q=-0.0 size=N/A time=00:00:48.71 bitrate=N/A speed=15.7x    frame= 1363 fps=378 q=-0.0 size=N/A time=00:00:56.84 bitrate=N/A speed=15.8x    frame= 1576 fps=382 q=-0.0 size=N/A time=00:01:05.73 bitrate=N/A speed=15.9x    frame= 1789 fps=385 q=-0.0 size=N/A time=00:01:14.61 bitrate=N/A speed=16.1x    frame= 1997 fps=388 q=-0.0 size=N/A time=00:01:23.29 bitrate=N/A speed=16.2x    frame= 2204 fps=388 q=-0.0 size=N/A time=00:01:31.92 bitrate=N/A speed=16.2x    frame= 2358 fps=381 q=-0.0 size=N/A time=00:01:38.34 bitrate=N/A speed=15.9x    frame= 2557 fps=382 q=-0.0 size=N/A time=00:01:46.64 bitrate=N/A speed=15.9x    frame= 2763 fps=383 q=-0.0 size=N/A time=00:01:55.24 bitrate=N/A speed=  16x    frame= 2975 fps=384 q=-0.0 size=N/A time=00:02:04.08 bitrate=N/A speed=  16x    frame= 3210 fps=389 q=-0.0 size=N/A time=00:02:13.88 bitrate=N/A speed=16.2x    frame= 3439 fps=392 q=-0.0 size=N/A time=00:02:23.43 bitrate=N/A speed=16.4x    frame= 3620 fps=390 q=-0.0 size=N/A time=00:02:30.98 bitrate=N/A speed=16.3x    frame= 3814 fps=389 q=-0.0 size=N/A time=00:02:39.07 bitrate=N/A speed=16.2x    frame= 4031 fps=391 q=-0.0 size=N/A time=00:02:48.12 bitrate=N/A speed=16.3x    frame= 4278 fps=395 q=-0.0 size=N/A time=00:02:58.42 bitrate=N/A speed=16.5x    frame= 4518 fps=398 q=-0.0 size=N/A time=00:03:08.43 bitrate=N/A speed=16.6x    frame= 4740 fps=400 q=-0.0 size=N/A time=00:03:17.69 bitrate=N/A speed=16.7x    frame= 4936 fps=399 q=-0.0 size=N/A time=00:03:25.87 bitrate=N/A speed=16.6x    frame= 5176 fps=401 q=-0.0 size=N/A time=00:03:35.88 bitrate=N/A speed=16.7x    frame= 5421 fps=404 q=-0.0 size=N/A time=00:03:46.10 bitrate=N/A speed=16.9x    frame= 5683 fps=408 q=-0.0 size=N/A time=00:03:57.02 bitrate=N/A speed=  17x    frame= 5941 fps=412 q=-0.0 size=N/A time=00:04:07.78 bitrate=N/A speed=17.2x    frame= 6173 fps=413 q=-0.0 size=N/A time=00:04:17.46 bitrate=N/A speed=17.2x    frame= 6392 fps=413 q=-0.0 size=N/A time=00:04:26.59 bitrate=N/A speed=17.2x    frame= 6595 fps=413 q=-0.0 size=N/A time=00:04:35.06 bitrate=N/A speed=17.2x    frame= 6817 fps=413 q=-0.0 size=N/A time=00:04:44.32 bitrate=N/A speed=17.2x    frame= 7061 fps=415 q=-0.0 size=N/A time=00:04:54.50 bitrate=N/A speed=17.3x    frame= 7294 fps=416 q=-0.0 size=N/A time=00:05:04.22 bitrate=N/A speed=17.3x    frame= 7512 fps=416 q=-0.0 size=N/A time=00:05:13.31 bitrate=N/A speed=17.4x    frame= 7717 fps=416 q=-0.0 size=N/A time=00:05:21.86 bitrate=N/A speed=17.3x    frame= 7978 fps=418 q=-0.0 size=N/A time=00:05:32.74 bitrate=N/A speed=17.4x    frame= 8213 fps=419 q=-0.0 size=N/A time=00:05:42.55 bitrate=N/A speed=17.5x    frame= 8476 fps=421 q=-0.0 size=N/A time=00:05:53.51 bitrate=N/A speed=17.6x    frame= 8717 fps=423 q=-0.0 size=N/A time=00:06:03.57 bitrate=N/A speed=17.6x    frame= 8979 fps=425 q=-0.0 size=N/A time=00:06:14.49 bitrate=N/A speed=17.7x    frame= 9226 fps=426 q=-0.0 size=N/A time=00:06:24.80 bitrate=N/A speed=17.8x    frame= 9465 fps=427 q=-0.0 size=N/A time=00:06:34.76 bitrate=N/A speed=17.8x    frame= 9728 fps=429 q=-0.0 size=N/A time=00:06:45.73 bitrate=N/A speed=17.9x    frame= 9975 fps=430 q=-0.0 size=N/A time=00:06:56.04 bitrate=N/A speed=17.9x    frame=10202 fps=430 q=-0.0 size=N/A time=00:07:05.50 bitrate=N/A speed=17.9x    frame=10444 fps=431 q=-0.0 size=N/A time=00:07:15.60 bitrate=N/A speed=  18x    frame=10689 fps=432 q=-0.0 size=N/A time=00:07:25.82 bitrate=N/A speed=  18x    frame=10943 fps=433 q=-0.0 size=N/A time=00:07:36.41 bitrate=N/A speed=18.1x    frame=11218 fps=435 q=-0.0 size=N/A time=00:07:47.88 bitrate=N/A speed=18.1x    frame=11492 fps=437 q=-0.0 size=N/A time=00:07:59.31 bitrate=N/A speed=18.2x    frame=11762 fps=439 q=-0.0 size=N/A time=00:08:10.57 bitrate=N/A speed=18.3x    frame=11983 fps=438 q=-0.0 size=N/A time=00:08:19.79 bitrate=N/A speed=18.3x    frame=12252 fps=440 q=-0.0 size=N/A time=00:08:31.01 bitrate=N/A speed=18.3x    frame=12497 fps=441 q=-0.0 size=N/A time=00:08:41.22 bitrate=N/A speed=18.4x    frame=12719 fps=440 q=-0.0 size=N/A time=00:08:50.48 bitrate=N/A speed=18.4x    frame=12953 fps=441 q=-0.0 size=N/A time=00:09:00.24 bitrate=N/A speed=18.4x    frame=13207 fps=442 q=-0.0 size=N/A time=00:09:10.84 bitrate=N/A speed=18.4x    frame=13439 fps=442 q=-0.0 size=N/A time=00:09:20.51 bitrate=N/A speed=18.4x    frame=13681 fps=442 q=-0.0 size=N/A time=00:09:30.61 bitrate=N/A speed=18.4x    frame=13936 fps=443 q=-0.0 size=N/A time=00:09:41.24 bitrate=N/A speed=18.5x    frame=14182 fps=444 q=-0.0 size=N/A time=00:09:51.50 bitrate=N/A speed=18.5x    frame=14433 fps=444 q=-0.0 size=N/A time=00:10:01.97 bitrate=N/A speed=18.5x    frame=14686 fps=445 q=-0.0 size=N/A time=00:10:12.52 bitrate=N/A speed=18.6x    frame=14946 fps=446 q=-0.0 size=N/A time=00:10:23.37 bitrate=N/A speed=18.6x    frame=15180 fps=446 q=-0.0 size=N/A time=00:10:33.13 bitrate=N/A speed=18.6x    frame=15400 fps=446 q=-0.0 size=N/A time=00:10:42.30 bitrate=N/A speed=18.6x    frame=15633 fps=446 q=-0.0 size=N/A time=00:10:52.02 bitrate=N/A speed=18.6x    frame=15892 fps=447 q=-0.0 size=N/A time=00:11:02.82 bitrate=N/A speed=18.6x    frame=16150 fps=447 q=-0.0 size=N/A time=00:11:13.58 bitrate=N/A speed=18.7x    frame=16398 fps=448 q=-0.0 size=N/A time=00:11:23.93 bitrate=N/A speed=18.7x    frame=16662 fps=449 q=-0.0 size=N/A time=00:11:34.94 bitrate=N/A speed=18.7x    frame=16919 fps=450 q=-0.0 size=N/A time=00:11:45.66 bitrate=N/A speed=18.7x    frame=17173 fps=450 q=-0.0 size=N/A time=00:11:56.25 bitrate=N/A speed=18.8x    frame=17430 fps=451 q=-0.0 size=N/A time=00:12:06.97 bitrate=N/A speed=18.8x    frame=17689 fps=451 q=-0.0 size=N/A time=00:12:17.77 bitrate=N/A speed=18.8x    frame=17897 fps=451 q=-0.0 size=N/A time=00:12:26.45 bitrate=N/A speed=18.8x    frame=18128 fps=451 q=-0.0 size=N/A time=00:12:36.08 bitrate=N/A speed=18.8x    frame=18364 fps=451 q=-0.0 size=N/A time=00:12:45.93 bitrate=N/A speed=18.8x    frame=18603 fps=451 q=-0.0 size=N/A time=00:12:55.90 bitrate=N/A speed=18.8x    frame=18823 fps=451 q=-0.0 size=N/A time=00:13:05.07 bitrate=N/A speed=18.8x    frame=19058 fps=451 q=-0.0 size=N/A time=00:13:14.87 bitrate=N/A speed=18.8x    frame=19275 fps=450 q=-0.0 size=N/A time=00:13:23.92 bitrate=N/A speed=18.8x    frame=19551 fps=451 q=-0.0 size=N/A time=00:13:35.43 bitrate=N/A speed=18.8x    frame=19791 fps=452 q=-0.0 size=N/A time=00:13:45.44 bitrate=N/A speed=18.8x    frame=20060 fps=452 q=-0.0 size=N/A time=00:13:56.66 bitrate=N/A speed=18.9x    frame=20331 fps=453 q=-0.0 size=N/A time=00:14:07.97 bitrate=N/A speed=18.9x    frame=20519 fps=452 q=-0.0 size=N/A time=00:14:15.81 bitrate=N/A speed=18.9x    frame=20735 fps=452 q=-0.0 size=N/A time=00:14:24.82 bitrate=N/A speed=18.8x    frame=20962 fps=452 q=-0.0 size=N/A time=00:14:34.29 bitrate=N/A speed=18.8x    frame=21172 fps=451 q=-0.0 size=N/A time=00:14:43.04 bitrate=N/A speed=18.8x    frame=21370 fps=450 q=-0.0 size=N/A time=00:14:51.30 bitrate=N/A speed=18.8x    frame=21598 fps=450 q=-0.0 size=N/A time=00:15:00.81 bitrate=N/A speed=18.8x    frame=21821 fps=450 q=-0.0 size=N/A time=00:15:10.11 bitrate=N/A speed=18.8x    frame=22065 fps=450 q=-0.0 size=N/A time=00:15:20.29 bitrate=N/A speed=18.8x    frame=22264 fps=450 q=-0.0 size=N/A time=00:15:28.59 bitrate=N/A speed=18.8x    frame=22458 fps=449 q=-0.0 size=N/A time=00:15:36.68 bitrate=N/A speed=18.7x    frame=22655 fps=448 q=-0.0 size=N/A time=00:15:44.90 bitrate=N/A speed=18.7x    frame=22840 fps=447 q=-0.0 size=N/A time=00:15:52.61 bitrate=N/A speed=18.7x    frame=23047 fps=447 q=-0.0 size=N/A time=00:16:01.25 bitrate=N/A speed=18.6x    frame=23263 fps=447 q=-0.0 size=N/A time=00:16:10.26 bitrate=N/A speed=18.6x    frame=23439 fps=446 q=-0.0 size=N/A time=00:16:17.60 bitrate=N/A speed=18.6x    frame=23686 fps=446 q=-0.0 size=N/A time=00:16:27.90 bitrate=N/A speed=18.6x    frame=23869 fps=445 q=-0.0 size=N/A time=00:16:35.53 bitrate=N/A speed=18.6x    frame=24105 fps=445 q=-0.0 size=N/A time=00:16:45.37 bitrate=N/A speed=18.6x    frame=24330 fps=445 q=-0.0 size=N/A time=00:16:54.76 bitrate=N/A speed=18.6x    frame=24545 fps=445 q=-0.0 size=N/A time=00:17:03.73 bitrate=N/A speed=18.6x    frame=24760 fps=445 q=-0.0 size=N/A time=00:17:12.69 bitrate=N/A speed=18.5x    frame=24953 fps=444 q=-0.0 size=N/A time=00:17:20.74 bitrate=N/A speed=18.5x    frame=25166 fps=444 q=-0.0 size=N/A time=00:17:29.63 bitrate=N/A speed=18.5x    frame=25432 fps=444 q=-0.0 size=N/A time=00:17:40.72 bitrate=N/A speed=18.5x    frame=25633 fps=444 q=-0.0 size=N/A time=00:17:49.10 bitrate=N/A speed=18.5x    frame=25872 fps=444 q=-0.0 size=N/A time=00:17:59.07 bitrate=N/A speed=18.5x    frame=26126 fps=444 q=-0.0 size=N/A time=00:18:09.67 bitrate=N/A speed=18.5x    frame=26397 fps=445 q=-0.0 size=N/A time=00:18:20.97 bitrate=N/A speed=18.6x    frame=26630 fps=445 q=-0.0 size=N/A time=00:18:30.69 bitrate=N/A speed=18.6x    frame=26838 fps=445 q=-0.0 size=N/A time=00:18:39.36 bitrate=N/A speed=18.6x    frame=27028 fps=444 q=-0.0 size=N/A time=00:18:47.29 bitrate=N/A speed=18.5x    frame=27222 fps=444 q=-0.0 size=N/A time=00:18:55.38 bitrate=N/A speed=18.5x    frame=27464 fps=444 q=-0.0 size=N/A time=00:19:05.47 bitrate=N/A speed=18.5x    frame=27707 fps=444 q=-0.0 size=N/A time=00:19:15.61 bitrate=N/A speed=18.5x    frame=27949 fps=444 q=-0.0 size=N/A time=00:19:25.70 bitrate=N/A speed=18.5x    frame=28184 fps=444 q=-0.0 size=N/A time=00:19:35.50 bitrate=N/A speed=18.5x    frame=28402 fps=444 q=-0.0 size=N/A time=00:19:44.60 bitrate=N/A speed=18.5x    frame=28643 fps=444 q=-0.0 size=N/A time=00:19:54.65 bitrate=N/A speed=18.5x    frame=28881 fps=445 q=-0.0 size=N/A time=00:20:04.57 bitrate=N/A speed=18.5x    frame=29147 fps=445 q=-0.0 size=N/A time=00:20:15.67 bitrate=N/A speed=18.6x    frame=29376 fps=445 q=-0.0 size=N/A time=00:20:25.22 bitrate=N/A speed=18.6x    frame=29643 fps=446 q=-0.0 size=N/A time=00:20:36.36 bitrate=N/A speed=18.6x    frame=29889 fps=446 q=-0.0 size=N/A time=00:20:46.62 bitrate=N/A speed=18.6x    frame=30161 fps=447 q=-0.0 size=N/A time=00:20:57.96 bitrate=N/A speed=18.6x    frame=30411 fps=447 q=-0.0 size=N/A time=00:21:08.39 bitrate=N/A speed=18.6x    frame=30638 fps=447 q=-0.0 size=N/A time=00:21:17.85 bitrate=N/A speed=18.6x    frame=30896 fps=447 q=-0.0 size=N/A time=00:21:28.62 bitrate=N/A speed=18.7x    frame=31134 fps=447 q=-0.0 size=N/A time=00:21:38.54 bitrate=N/A speed=18.7x    frame=31381 fps=448 q=-0.0 size=N/A time=00:21:48.84 bitrate=N/A speed=18.7x    frame=31640 fps=448 q=-0.0 size=N/A time=00:21:59.65 bitrate=N/A speed=18.7x    frame=31880 fps=448 q=-0.0 size=N/A time=00:22:09.66 bitrate=N/A speed=18.7x    frame=32088 fps=448 q=-0.0 size=N/A time=00:22:18.33 bitrate=N/A speed=18.7x    frame=32222 fps=446 q=-0.0 size=N/A time=00:22:23.92 bitrate=N/A speed=18.6x    frame=32399 fps=446 q=-0.0 size=N/A time=00:22:31.30 bitrate=N/A speed=18.6x    frame=32590 fps=445 q=-0.0 size=N/A time=00:22:39.27 bitrate=N/A speed=18.6x    frame=32750 fps=444 q=-0.0 size=N/A time=00:22:45.94 bitrate=N/A speed=18.5x    frame=32915 fps=443 q=-0.0 size=N/A time=00:22:52.82 bitrate=N/A speed=18.5x    frame=33080 fps=442 q=-0.0 size=N/A time=00:22:59.71 bitrate=N/A speed=18.4x    frame=33245 fps=441 q=-0.0 size=N/A time=00:23:06.59 bitrate=N/A speed=18.4x    frame=33425 fps=441 q=-0.0 size=N/A time=00:23:14.10 bitrate=N/A speed=18.4x    frame=33615 fps=440 q=-0.0 size=N/A time=00:23:22.02 bitrate=N/A speed=18.4x    frame=33793 fps=440 q=-0.0 size=N/A time=00:23:29.44 bitrate=N/A speed=18.3x    frame=33976 fps=439 q=-0.0 size=N/A time=00:23:37.08 bitrate=N/A speed=18.3x    frame=34167 fps=439 q=-0.0 size=N/A time=00:23:45.04 bitrate=N/A speed=18.3x    [Parsed_psnr_10 @ 00000210c30873c0] PSNR y:47.417015 u:50.984759 v:50.848036 average:48.302239 min:40.638327 max:inf
[out#0/null @ 00000210b5fbf080] video:14697KiB audio:267700KiB subtitle:0KiB other streams:0KiB global headers:0KiB muxing overhead: unknown
frame=34203 fps=439 q=-0.0 Lsize=N/A time=00:23:46.55 bitrate=N/A speed=18.3x    
